<?xml version="1.0" encoding="UTF-8" standalone="no"?>
<svg
   viewBox="0 0 966.54 657.04"
   version="1.1"
   id="svg188"
   sodipodi:docname="2023_08-21-gebaeude2-1og-neu.svg"
   inkscape:version="1.3 (0e150ed6c4, 2023-07-21)"
   xmlns:inkscape="http://www.inkscape.org/namespaces/inkscape"
   xmlns:sodipodi="http://sodipodi.sourceforge.net/DTD/sodipodi-0.dtd"
   xmlns="http://www.w3.org/2000/svg"
   xmlns:svg="http://www.w3.org/2000/svg">
  <defs
     id="defs188" />
  <sodipodi:namedview
     id="namedview188"
     pagecolor="#ffffff"
     bordercolor="#000000"
     borderopacity="0.25"
     inkscape:showpageshadow="2"
     inkscape:pageopacity="0.0"
     inkscape:pagecheckerboard="0"
     inkscape:deskcolor="#d1d1d1"
     inkscape:zoom="9.1625801"
     inkscape:cx="414.13008"
     inkscape:cy="285.12711"
     inkscape:window-width="1920"
     inkscape:window-height="991"
     inkscape:window-x="-9"
     inkscape:window-y="-9"
     inkscape:window-maximized="1"
     inkscape:current-layer="way" />
  <g
     id="BG">
    <path
       id="rect1"
       style="fill:#898989;stroke-width:0"
       d="m 337.76999,406.79999 h 1.3 v 40.83 h -1.3 z" />
    <path
       id="polygon1"
       style="fill:#898989;fill-rule:evenodd;stroke-width:0"
       d="m 351.34,484.01 h -12.27 v -25.2 h -1.3 v 40.84 h 1.3 v -14.34 h 12.27 z" />
    <path
       id="polygon2"
       style="fill:#898989;fill-rule:evenodd;stroke-width:0"
       d="m 339.07,522.98 v -12.16 h -1.3 v 27.83 h 1.3 v -14.37 h 12.27 v -1.3 z" />
    <path
       id="polygon3"
       style="fill:#898989;fill-rule:evenodd;stroke-width:0"
       d="m 339.07,549.82 h -1.3 v 27.83 h 1.3 v -14.31 h 12.27 v -1.3 h -12.27 z" />
    <path
       id="polygon4"
       style="fill:#898989;fill-rule:evenodd;stroke-width:0"
       d="m 155.69,27.48 v 53.86 h 1.3 V 43.11 h 12.25 v -1.3 H 156.99 V 27.48 Z" />
    <path
       id="rect4"
       style="fill:#898989;stroke-width:0"
       d="m 129.67999,222.57001 h 1.3 v 28.92 h -1.3 z" />
    <path
       id="rect5"
       style="fill:#898989;stroke-width:0"
       d="m 129.67999,183.59 h 1.3 v 27.82 h -1.3 z" />
    <path
       id="rect6"
       style="fill:#898989;stroke-width:0"
       d="m 129.67999,144.50999 h 1.3 v 27.91 h -1.3 z" />
    <path
       id="rect7"
       style="fill:#898989;stroke-width:0"
       d="m 155.69,92.510002 h 1.3 V 146.38 h -1.3 z" />
    <path
       id="rect8"
       style="fill:#898989;stroke-width:0"
       d="m 610.87,121.12 h 1.3 v 36.29 h -1.3 z" />
    <path
       id="rect9"
       style="fill:#898989;stroke-width:0"
       d="m 337.76999,588.82001 h 1.3 v 40.85 h -1.3 z" />
    <path
       id="rect10"
       style="fill:#898989;stroke-width:0"
       d="m 716.14001,280.89999 h 24.96 v 5.4 h -24.96 z" />
    <path
       id="rect11"
       style="fill:#898989;stroke-width:0"
       d="m 768.19,280.89999 h 24.96 v 5.4 h -24.96 z" />
    <path
       id="rect12"
       style="fill:#898989;stroke-width:0"
       d="m 742.16998,280.89999 h 24.96 v 5.4 h -24.96 z" />
    <path
       id="rect13"
       style="fill:#898989;stroke-width:0"
       d="m 806.88,280.89999 h 24.96 v 5.4 h -24.96 z" />
    <path
       id="rect14"
       style="fill:#898989;stroke-width:0"
       d="m 858.92999,280.89999 h 24.96 v 5.4 h -24.96 z" />
    <path
       id="rect15"
       style="fill:#898989;stroke-width:0"
       d="m 832.90002,280.89999 h 24.96 v 5.4 h -24.96 z" />
    <path
       id="rect16"
       style="fill:#898989;stroke-width:0"
       d="m 260.82001,280.89999 h 24.96 v 5.4 h -24.96 z" />
    <path
       id="rect17"
       style="fill:#898989;stroke-width:0"
       d="m 312.87,280.89999 h 24.95999 v 5.4 H 312.87 Z" />
    <path
       id="rect18"
       style="fill:#898989;stroke-width:0"
       d="m 286.84,280.89999 h 24.96 v 5.4 h -24.96 z" />
    <path
       id="rect19"
       style="fill:#898989;stroke-width:0"
       d="m 351.84,280.89999 h 24.96 v 5.4 h -24.96 z" />
    <path
       id="rect20"
       style="fill:#898989;stroke-width:0"
       d="m 403.89001,280.89999 h 24.96 v 5.4 h -24.96 z" />
    <path
       id="rect21"
       style="fill:#898989;stroke-width:0"
       d="m 377.85999,280.89999 h 24.95999 v 5.4 h -24.95999 z" />
    <path
       id="polygon21"
       style="fill:#898989;stroke-width:0"
       d="m 489.6,269.03 h 14.04 v 4.71 h 4 v -4.71 -3.91 -0.09 h -48.34 -4 v 4 19.79 h -9.44 v -11.7 -4 h -4 -178.1 V 4 2.56 0 H 61.83 V 2.56 4 288.75 h -9.49 v -19.79 -4 h -4 H 4 0 v 4 21.09 h 4 11.97 v -1.3 H 4 v -19.79 h 44.34 v 19.79 h -21.2 v 1.3 h 21.2 v 0 h 4 v 0 h 13.49 v -0.99 -0.31 -11.63 h 63.85 v 0 h 1.3 v 0 -1.6 -12.86 h -1.3 v 12.86 H 65.83 V 121.14 h 63.85 v 12.2 h 1.3 v -14.79 h -1.3 v 1.29 H 65.83 V 95.13 h 63.85 v 12.25 h 1.3 v -27.9 h -1.3 V 93.83 H 65.83 v -37.7 h 63.85 v 12.18 h 1.3 v -14.8 h -1.3 v 1.32 H 65.83 V 30.09 h 63.85 v 12.25 h 1.3 v -14.9 h -1.3 v 1.35 H 65.83 V 4 h 63.85 v 12.27 h 1.3 V 4 h 24.71 v 12.31 h 1.3 V 4 h 102.77 v 37.81 h -79.35 v 1.3 h 79.35 V 197.9 H 156.99 v -40.35 h -1.3 v 66.89 h 1.3 V 199.2 h 102.77 v 73.92 2.05 0.35 H 156.99 v -39.91 h -1.3 v 41.51 h 1.3 v 0 h 102.77 4.1 178 v 12.06 h 3.52 v 0.94 h 9.92 2.36 1.64 7.68 v -1.6 H 459.3 V 269.03 H 488 v 19.49 h -6.88 v 1.6 h 9.11 v -1.6 h -0.63 z" />
    <path
       id="polygon22"
       style="fill:#898989;stroke-width:0"
       d="m 503.64,283.98 v 4.54 h -6.65 v 1.6 h 7.08 v 0 h 3.57 v -6.14 z" />
    <path
       id="polygon23"
       style="fill:#898989;stroke-width:0"
       d="m 442.3,328.05 v -0.42 0 -1.6 0 -9.5 0 -1.6 h -14.4 v 1.6 h 12.8 v 9.5 h -36.46 v -9.5 H 418 v -1.6 h -15.36 v 0 0 14.18 h 1.6 v -1.48 h 36.46 v 1.69 h 1.16 v 50.35 H 407.54 V 353.7 h 9.74 v -0.8 0 -12.47 0 h -1.6 -11.44 v -1.42 h -1.6 v 1.42 h -0.72 v 1.6 h 13.76 v 10.07 h -8.14 v 0 h -1.6 v 0 0 1.6 0 25.97 H 379.86 V 353.7 h 11.38 v -0.8 -0.8 -10.07 h 0.78 v -1.6 h -0.78 -1.6 -0.35 v 1.6 h 0.35 v 10.07 h -9.78 v 0 h -1.6 v 0 h -13.02 v -10.07 h 14.15 v -1.6 h -1.17 v -1.42 h -1.6 v 1.42 h -11.38 -1.6 v 1.6 10.07 0.8 0.8 h 14.62 v 25.97 h -38.89 v -52.04 h 37.25 v 1.48 h 1.6 v -12.58 0 -1.6 h -15.3 v 1.6 h 13.7 v 9.5 h -37.25 v -9.5 h 13.65 v -1.6 h -14.95 v 0 h -0.3 v 80.21 h 1.6 v -13.87 h 102.49 v 102.74 h -79.35 v 1.3 h 79.35 v 37.67 h -79.35 v 1.3 h 79.35 v 37.76 h -79.35 v 1.3 h 79.35 v 89.7 H 339.07 v -12.2 h -1.3 v 12.2 h -24.71 v -25.16 h -1.3 v 25.16 h -63.82 v -50.67 h 63.82 v 14.34 h 1.3 v -40.83 h -1.3 v 25.19 h -63.82 v -50.72 h 63.82 v 14.36 h 1.3 v -40.88 h -1.3 v 25.22 h -63.82 v -50.72 h 63.82 v 14.33 h 1.3 v -27.88 h -1.3 v 12.25 h -63.82 v -50.72 h 63.82 v 27.3 h 1.3 v -40.85 h -1.3 v 12.25 h -63.82 v -61.12 -3.07 -0.93 -11.49 h 63.52 v 12.88 h 0.3 v 40.31 h 1.3 v -42.28 -62.78 0 -1.6 h -40.25 v 1.6 h 38.65 v 50.27 h -63.52 v -50.27 h 13.7 v -1.6 h -27.89 v 1.6 h 12.59 v 63.36 h -2.4 -34.84 v -63.36 h 13.48 v -1.6 h -40.82 v 1.6 h 25.74 v 63.36 h -50.36 v -63.36 h 13.45 v -1.6 h -27.83 v 1.6 h 12.78 v 63.36 h -37.4 v -63.36 h 13.45 v -1.6 H 90.74 v 1.6 h 25.8 v 63.36 H 65.83 v -11.93 h 1.15 v -51.43 h 12.59 v -1.6 H 65.38 v 1.6 11.45 H 52.34 v 1.3 h 9.49 v 50.61 h -0.04 v 4 h 0.04 4 178.11 v 269.15 4 h 4 193.92 4 v -4 -323.69 h 9.44 v -1.3 z" />
    <path
       id="polygon24"
       style="fill:#898989;stroke-width:0"
       d="m 900.98,336.05 h -4 v 1.5 H 885.5 v -10.33 h -1.6 v 10.33 H 883 v 1.6 h 13.98 v 40.52 H 872.4 v -40.52 h 0.7 v -1.6 h -2.94 v 1.6 h 0.64 v 40.52 h -24.18 v -40.52 h 13.64 v -1.6 h -0.78 v -10.33 h -1.6 v 10.33 H 836.7 v -21.08 h 21.18 v 0.85 h 1.6 v -0.85 -0.76 -0.84 h -66.52 v 0.84 0 27.85 h 1.6 v -27.09 h 40.54 v 21.08 0 1.6 h 9.92 v 27.55 h -50.46 v -11.97 h -1.6 v 66.86 h 1.6 V 368.3 h 50.46 v 12.97 h 0.66 0.94 24.18 1.6 24.58 v 76.76 H 794.56 v -25.27 h -1.6 v 66.89 h 1.6 v -40.32 h 102.42 v 76.69 H 794.56 v -25.2 h -1.6 V 616.7 h 1.6 V 537.32 H 896.98 V 653.04 H 794.56 v -25.17 h -1.6 v 25.17 h -24.68 v -12.2 h -1.3 v 12.2 H 703.31 V 537.32 h 63.67 v 92.35 h 1.3 V 523.84 h -1.3 v 12.18 h -63.67 v -76.69 h 63.67 v 53.34 h 1.3 v -66.89 h -1.3 v 12.25 h -63.67 v -50.72 h 63.67 v 26.47 h 1.3 v -40.02 h -1.3 v 12.25 h -63.67 v -22.12 h 0.02 v -4 -63.36 h 63.65 v 66.06 h 1.3 v -66.06 -0.69 -0.91 h -79.25 v 1.6 h 12.7 v 63.36 h -37.49 v -63.36 h 13.62 v -1.6 h -27.89 v 1.6 h 12.97 v 63.36 h -24.72 v -63.36 h 0.58 v -1.6 h -14.81 v 1.6 h 12.93 v 63.36 h -24.75 v -63.36 h 0.65 v -1.6 h -14.9 v 1.6 h 12.95 v 63.36 h -24.64 v -63.36 h 0.52 v -1.6 h -14.78 v 1.6 h 12.96 v 63.36 h -37.75 v -63.36 h 13.62 v -1.6 h -15.44 v 1.6 h 0.52 v 63.36 H 521 v -30.68 h 0.22 v -32.68 h 12.97 v -1.6 h -12.97 -0.54 -0.76 v 13.12 h -12.28 v 1.3 H 517 v 54.54 h 0.18 3.82 178.31 v 269.15 h -0.03 v 4 H 901 v -4 h -0.02 z" />
    <path
       id="polygon25"
       style="fill:#898989;stroke-width:0"
       d="m 900.98,328.07 v -13.2 h -3.18 -0.82 -13.08 v 0.84 0.82 0.79 h 1.6 v -0.79 h 11.48 v 13.46 h 4 v -0.62 h 9.57 v -1.3 z" />
    <g
       id="Treppenhaus_A">
      <path
         id="rect25"
         style="fill:#898989;stroke-width:0"
         d="m 27.219999,357.09 h 20.84 v 0.25 h -20.84 z" />
      <path
         id="rect26"
         style="fill:#898989;stroke-width:0"
         d="m 27.219999,368.98001 h 20.84 v 0.3 h -20.84 z" />
      <path
         id="rect27"
         style="fill:#898989;stroke-width:0"
         d="m 27.219999,350.79999 h 20.84 v 0.25 h -20.84 z" />
      <path
         id="rect28"
         style="fill:#898989;stroke-width:0"
         d="m 27.219999,366.51001 h 20.84 v 0.25 h -20.84 z" />
      <path
         id="rect29"
         style="fill:#898989;stroke-width:0"
         d="m 27.219999,353.94 h 20.84 v 0.25 h -20.84 z" />
      <path
         id="rect30"
         style="fill:#898989;stroke-width:0"
         d="m 27.219999,370.57999 h 20.84 v 0.3 h -20.84 z" />
      <path
         id="rect31"
         style="fill:#898989;stroke-width:0"
         d="m 27.219999,347.66 h 20.84 v 0.25 h -20.84 z" />
      <path
         id="rect32"
         style="fill:#898989;stroke-width:0"
         d="m 27.219999,341.37 h 20.84 v 0.25 h -20.84 z" />
      <path
         id="rect33"
         style="fill:#898989;stroke-width:0"
         d="m 27.219999,360.23001 h 20.84 v 0.25 h -20.84 z" />
      <path
         id="rect34"
         style="fill:#898989;stroke-width:0"
         d="m 27.219999,344.51999 h 20.84 v 0.25 h -20.84 z" />
      <path
         id="rect35"
         style="fill:#898989;stroke-width:0"
         d="m 27.219999,363.37 h 20.84 v 0.25 h -20.84 z" />
      <path
         id="polygon35"
         style="fill:#898989;stroke-width:0"
         d="m 0,388.19 v 4 h 4 44.34 4 v -4 -57.54 -1.37 -1.3 h -4 -21.42 v 0.3 1.7 17.45 0.23 0.25 3.14 2.89 0.25 2.9 0.25 2.89 0.25 2.89 0.25 2.89 0.25 2.22 0.3 1.3 0.3 0 h 0.3 v 0 -0.3 -1.3 -0.3 -2.22 -0.25 -2.89 -0.25 -2.89 -0.25 -2.89 -0.25 -2.9 -0.25 -2.89 -0.25 -2.89 -0.25 -2.89 -0.25 -2.9 -0.25 -2.89 -0.25 -2.89 -0.25 -2.89 -0.25 -1.02 -2.65 h 20.84 v 2.12 1.55 0.25 2.89 0.25 2.89 0.25 2.89 0.25 2.9 0.25 2.89 0.25 2.89 0.25 2.89 0.25 2.9 0.25 2.89 0.25 2.89 0.25 2.89 0.25 2.22 0.3 1.3 0.3 0 h 0.28 v 17.31 H 4 v -17.31 h 0.3 v 0 -42.6 h 21 v 1.31 0.81 0.25 2.89 29.63 1.85 0.25 3.71 0.3 1.3 0.3 0 h 0.3 v 0 -0.3 -1.3 -0.3 -3.71 -0.25 -17.59 -17.45 -1.18 -0.52 h 1.32 v -0.3 H 4 V 290.05 H 0 Z" />
      <path
         id="rect36"
         style="fill:#898989;stroke-width:0"
         d="m 27.219999,331.95001 h 1.39 v 0.25 h -1.39 z" />
      <path
         id="rect37"
         style="fill:#898989;stroke-width:0"
         d="m 46.82,331.95001 h 1.24 v 0.25 h -1.24 z" />
      <path
         id="rect38"
         style="fill:#898989;stroke-width:0"
         d="m 25.6,368.98001 h 1.32 v 0.3 H 25.6 Z" />
      <path
         id="rect39"
         style="fill:#898989;stroke-width:0"
         d="m 25.6,370.57999 h 1.32 v 0.3 H 25.6 Z" />
      <path
         id="rect40"
         style="fill:#898989;stroke-width:0"
         d="m 25.6,329.98001 h 1.32 v 17.45 H 25.6 Z" />
      <path
         id="rect41"
         style="fill:#898989;stroke-width:0"
         d="M 4.3000002,342.98001 H 25.3 v 0.25 H 4.3000002 Z" />
      <path
         id="rect42"
         style="fill:#898989;stroke-width:0"
         d="M 4.3000002,346.13 H 25.3 v 0.25 H 4.3000002 Z" />
      <path
         id="rect43"
         style="fill:#898989;stroke-width:0"
         d="M 4.3000002,355.57001 H 25.3 v 0.25 H 4.3000002 Z" />
      <path
         id="rect44"
         style="fill:#898989;stroke-width:0"
         d="M 4.3000002,361.87 H 25.3 v 0.25 H 4.3000002 Z" />
      <path
         id="rect45"
         style="fill:#898989;stroke-width:0"
         d="M 4.3000002,349.28 H 25.3 v 0.25 H 4.3000002 Z" />
      <path
         id="rect46"
         style="fill:#898989;stroke-width:0"
         d="M 4.3000002,358.72 H 25.3 v 0.25 H 4.3000002 Z" />
      <path
         id="rect47"
         style="fill:#898989;stroke-width:0"
         d="M 4.3000002,352.42999 H 25.3 v 0.25 H 4.3000002 Z" />
      <path
         id="rect48"
         style="fill:#898989;stroke-width:0"
         d="M 4.3000002,368.98001 H 25.31 v 0.3 H 4.3000002 Z" />
      <path
         id="rect49"
         style="fill:#898989;stroke-width:0"
         d="M 4.3000002,370.57999 H 25.31 v 0.3 H 4.3000002 Z" />
      <path
         id="rect50"
         style="fill:#898989;stroke-width:0"
         d="M 4.3000002,365.01999 H 25.31 v 0.25 H 4.3000002 Z" />
      <path
         id="rect51"
         style="fill:#898989;stroke-width:0"
         d="m 27.219999,335.09 h 1.39 v 0.25 h -1.39 z" />
      <path
         id="rect52"
         style="fill:#898989;stroke-width:0"
         d="m 46.82,335.09 h 1.24 v 0.25 h -1.24 z" />
      <path
         id="rect53"
         style="fill:#898989;stroke-width:0"
         d="m 27.219999,338.23001 h 1.39 v 0.25 h -1.39 z" />
      <path
         id="rect54"
         style="fill:#898989;stroke-width:0"
         d="m 46.82,338.23001 h 1.24 v 0.25 h -1.24 z" />
      <path
         id="rect55"
         style="fill:#898989;stroke-width:0"
         d="m 4.3000002,330.39999 h 1.1799999 v 0.25 H 4.3000002 Z" />
      <path
         id="rect56"
         style="fill:#898989;stroke-width:0"
         d="m 23.690001,330.39999 h 1.61 v 0.25 h -1.61 z" />
      <path
         id="rect57"
         style="fill:#898989;stroke-width:0"
         d="m 4.3000002,333.54001 h 1.1799999 v 0.25 H 4.3000002 Z" />
      <path
         id="rect58"
         style="fill:#898989;stroke-width:0"
         d="m 23.690001,333.54001 h 1.61 v 0.25 h -1.61 z" />
      <path
         id="rect59"
         style="fill:#898989;stroke-width:0"
         d="m 4.3000002,336.69 h 1.1799999 v 0.25 H 4.3000002 Z" />
      <path
         id="rect60"
         style="fill:#898989;stroke-width:0"
         d="m 23.690001,336.69 h 1.61 v 0.25 h -1.61 z" />
      <path
         id="rect61"
         style="fill:#898989;stroke-width:0"
         d="m 4.3000002,339.84 h 1.1799999 v 0.25 H 4.3000002 Z" />
      <path
         id="rect62"
         style="fill:#898989;stroke-width:0"
         d="m 23.690001,339.84 h 1.61 v 0.25 h -1.61 z" />
    </g>
    <g
       id="Treppenhaus_AB">
      <path
         id="rect63"
         style="fill:#898989;stroke-width:0"
         d="m 482.44,369.04999 h 20.9 v 0.3 h -20.9 z" />
      <path
         id="rect64"
         style="fill:#898989;stroke-width:0"
         d="m 482.44,370.64001 h 20.9 v 0.3 h -20.9 z" />
      <path
         id="rect65"
         style="fill:#898989;stroke-width:0"
         d="m 482.44,363.35001 h 20.9 v 0.25 h -20.9 z" />
      <path
         id="rect66"
         style="fill:#898989;stroke-width:0"
         d="m 482.44,366.48999 h 20.9 v 0.25 h -20.9 z" />
      <path
         id="rect67"
         style="fill:#898989;stroke-width:0"
         d="m 482.44,341.35999 h 20.9 v 0.25 h -20.9 z" />
      <path
         id="rect68"
         style="fill:#898989;stroke-width:0"
         d="m 482.44,360.20999 h 20.9 v 0.25 h -20.9 z" />
      <path
         id="rect69"
         style="fill:#898989;stroke-width:0"
         d="m 482.44,344.5 h 20.9 v 0.25 h -20.9 z" />
      <path
         id="rect70"
         style="fill:#898989;stroke-width:0"
         d="m 482.44,347.64001 h 20.9 v 0.25 h -20.9 z" />
      <path
         id="rect71"
         style="fill:#898989;stroke-width:0"
         d="m 482.44,357.07001 h 20.9 v 0.25 h -20.9 z" />
      <path
         id="rect72"
         style="fill:#898989;stroke-width:0"
         d="m 482.44,353.92001 h 20.9 v 0.25 h -20.9 z" />
      <path
         id="rect73"
         style="fill:#898989;stroke-width:0"
         d="m 482.44,350.78 h 20.9 v 0.25 h -20.9 z" />
      <path
         id="rect74"
         style="fill:#898989;stroke-width:0"
         d="m 480.82001,369.04999 h 1.32 v 0.3 h -1.32 z" />
      <path
         id="rect75"
         style="fill:#898989;stroke-width:0"
         d="m 480.82001,370.64001 h 1.32 v 0.3 h -1.32 z" />
      <path
         id="rect76"
         style="fill:#898989;stroke-width:0"
         d="m 480.82001,329.95999 h 1.32 v 17.45 h -1.32 z" />
      <path
         id="rect77"
         style="fill:#898989;stroke-width:0"
         d="m 482.44,331.92999 h 1.3 v 0.25 h -1.3 z" />
      <path
         id="rect78"
         style="fill:#898989;stroke-width:0"
         d="m 501.94,331.92999 h 1.4 v 0.25 h -1.4 z" />
      <path
         id="rect79"
         style="fill:#898989;stroke-width:0"
         d="m 482.44,335.07001 h 1.3 v 0.25 h -1.3 z" />
      <path
         id="rect80"
         style="fill:#898989;stroke-width:0"
         d="m 501.94,335.07001 h 1.4 v 0.25 h -1.4 z" />
      <path
         id="rect81"
         style="fill:#898989;stroke-width:0"
         d="m 482.44,338.22 h 1.3 v 0.25 h -1.3 z" />
      <path
         id="rect82"
         style="fill:#898989;stroke-width:0"
         d="m 501.94,338.22 h 1.4 v 0.25 h -1.4 z" />
      <path
         id="rect83"
         style="fill:#898989;stroke-width:0"
         d="m 479.01999,330.38 h 1.5 v 0.25 h -1.5 z" />
      <path
         id="rect84"
         style="fill:#898989;stroke-width:0"
         d="m 479.01999,333.53 h 1.5 v 0.25 h -1.5 z" />
      <path
         id="rect85"
         style="fill:#898989;stroke-width:0"
         d="m 479.01999,339.82001 h 1.5 v 0.25 h -1.5 z" />
      <path
         id="rect86"
         style="fill:#898989;stroke-width:0"
         d="m 479.01999,336.67001 h 1.5 v 0.25 h -1.5 z" />
      <path
         id="polygon86"
         style="fill:#898989;stroke-width:0"
         d="m 503.65,328.05 v -0.26 h -0.3 v 0 h -20.91 v 0.3 h 20.91 v 1.15 2.69 0.25 2.89 0.25 2.9 0.25 2.89 0.25 2.89 0.25 2.89 0.25 2.89 0.25 2.89 0.25 2.9 0.25 2.89 0.25 2.89 0.25 2.89 0.25 2.31 0.3 1.29 0.3 0 h 0.29 v 17.32 H 459.3 v -17.32 h 0.28 v 0 h 20.94 v -0.3 h -20.94 v -1.29 h 20.94 v -0.3 h -20.94 v -3.81 h 20.94 v -0.25 h -20.94 v -2.89 h 20.94 v -0.25 h -20.94 v -2.9 h 20.94 v -0.25 h -20.94 v -2.9 h 20.94 v -0.25 h -20.94 v -2.89 h 20.94 v -0.25 h -20.94 v -2.9 h 20.94 v -0.25 h -20.94 v -2.9 h 20.94 v -0.25 h -20.94 v -2.89 h 20.94 v -0.25 h -20.94 v -2.9 h 1.24 v -0.25 h -1.24 v -2.9 h 1.24 v -0.25 h -1.24 v -2.89 h 1.24 v -0.25 h -1.24 v -2.9 h 1.24 v -0.25 h -1.24 v -1.14 -1.15 h 20.94 v 0.94 1.35 0.25 2.9 0.25 2.89 0.25 2.9 0.25 2.9 0.25 2.89 0.25 2.9 0.25 2.9 0.25 2.89 0.25 2.9 0.25 2.9 0.25 2.89 0.25 3.81 0.3 1.29 0.3 0 h 0.3 v 0 -0.3 -1.29 -0.3 -21.63 -17.46 -0.93 -0.94 h 1.32 v 1.15 0.72 17.46 1.34 12.75 7.54 0.3 1.29 0.3 0 h 0.3 v 0 -0.3 -1.29 -0.3 -2.31 -0.25 -2.89 -0.25 -2.89 -0.25 -2.89 -0.25 -2.9 -0.25 -2.89 -0.25 -2.89 -0.25 -2.89 -0.25 -2.89 -0.25 -2.89 -0.25 -2.9 -0.25 -2.89 -0.25 -2.15 -1.26 -0.16 -0.27 -0.3 h -22.86 -0.28 -0.02 v 0.26 h -3.98 v 1.3 58.91 4 h 4 44.34 4 v -4 -58.91 -1.3 z" />
    </g>
    <g
       id="Treppenhaus_B">
      <path
         id="rect87"
         style="fill:#898989;stroke-width:0"
         d="m 937.69,360.23001 h 21.2 v 0.25 h -21.2 z" />
      <path
         id="rect88"
         style="fill:#898989;stroke-width:0"
         d="m 937.69,369.07001 h 21.2 v 0.3 h -21.2 z" />
      <path
         id="rect89"
         style="fill:#898989;stroke-width:0"
         d="m 937.69,366.51001 h 21.2 v 0.25 h -21.2 z" />
      <path
         id="rect90"
         style="fill:#898989;stroke-width:0"
         d="m 937.69,370.66 h 21.2 v 0.3 h -21.2 z" />
      <path
         id="rect91"
         style="fill:#898989;stroke-width:0"
         d="m 937.69,363.37 h 21.2 v 0.25 h -21.2 z" />
      <path
         id="rect92"
         style="fill:#898989;stroke-width:0"
         d="m 937.69,341.38 h 21.2 v 0.25 h -21.2 z" />
      <path
         id="polygon92"
         style="fill:#898989;stroke-width:0"
         d="m 958.9,328.12 v -0.3 h -0.68 -20.53 v 0.3 z" />
      <path
         id="rect93"
         style="fill:#898989;stroke-width:0"
         d="m 937.69,353.95001 h 21.2 v 0.25 h -21.2 z" />
      <path
         id="rect94"
         style="fill:#898989;stroke-width:0"
         d="m 937.69,344.51999 h 21.2 v 0.25 h -21.2 z" />
      <path
         id="rect95"
         style="fill:#898989;stroke-width:0"
         d="m 937.69,350.81 h 21.2 v 0.25 h -21.2 z" />
      <path
         id="rect96"
         style="fill:#898989;stroke-width:0"
         d="m 937.69,357.09 h 21.2 v 0.25 h -21.2 z" />
      <path
         id="rect97"
         style="fill:#898989;stroke-width:0"
         d="m 937.69,347.66 h 21.2 v 0.25 h -21.2 z" />
      <path
         id="rect98"
         style="fill:#898989;stroke-width:0"
         d="m 914.83002,333.54999 h 20.94 v 0.25 h -20.94 z" />
      <path
         id="rect99"
         style="fill:#898989;stroke-width:0"
         d="m 914.83002,339.84 h 20.94 v 0.25 h -20.94 z" />
      <path
         id="rect100"
         style="fill:#898989;stroke-width:0"
         d="m 914.83002,330.41 h 20.94 v 0.25 h -20.94 z" />
      <path
         id="rect101"
         style="fill:#898989;stroke-width:0"
         d="m 914.83002,336.70001 h 20.94 v 0.25 h -20.94 z" />
      <path
         id="rect102"
         style="fill:#898989;stroke-width:0"
         d="m 914.83002,342.98999 h 20.94 v 0.25 h -20.94 z" />
      <path
         id="rect103"
         style="fill:#898989;stroke-width:0"
         d="m 914.83002,365.01001 h 20.94 v 0.25 h -20.94 z" />
      <path
         id="rect104"
         style="fill:#898989;stroke-width:0"
         d="m 914.83002,352.42999 h 20.94 v 0.25 h -20.94 z" />
      <path
         id="rect105"
         style="fill:#898989;stroke-width:0"
         d="m 914.83002,355.57999 h 20.94 v 0.25 h -20.94 z" />
      <path
         id="rect106"
         style="fill:#898989;stroke-width:0"
         d="m 914.83002,358.72 h 20.94 v 0.25 h -20.94 z" />
      <path
         id="rect107"
         style="fill:#898989;stroke-width:0"
         d="m 914.83002,361.87 h 20.94 v 0.25 h -20.94 z" />
      <path
         id="rect108"
         style="fill:#898989;stroke-width:0"
         d="m 914.83002,369.07001 h 20.94 v 0.3 h -20.94 z" />
      <path
         id="rect109"
         style="fill:#898989;stroke-width:0"
         d="m 914.83002,346.14001 h 20.94 v 0.25 h -20.94 z" />
      <path
         id="rect110"
         style="fill:#898989;stroke-width:0"
         d="m 914.83002,370.66 h 20.94 v 0.3 h -20.94 z" />
      <path
         id="rect111"
         style="fill:#898989;stroke-width:0"
         d="m 914.83002,349.28 h 20.94 v 0.25 h -20.94 z" />
      <path
         id="rect112"
         style="fill:#898989;stroke-width:0"
         d="m 936.07001,329.98999 h 1.32 v 17.45 h -1.32 z" />
      <path
         id="polygon112"
         style="fill:#898989;stroke-width:0"
         d="m 958.9,327.82 v 0.3 3.83 0.25 2.9 0.25 2.89 0.25 2.89 0.25 2.89 0.25 2.89 0.25 2.9 0.25 2.89 0.25 2.89 0.25 2.89 0.25 2.89 0.25 2.89 0.25 2.31 0.3 1.29 0.3 10.06 7.26 h -44.35 v -17.31 h 0.28 v -0.01 -0.3 -1.29 -0.3 -3.81 -0.25 -2.89 -0.25 -2.9 -0.25 -2.89 -0.25 -2.9 -0.25 -2.9 -0.25 -2.89 -0.25 -2.9 -0.25 -2.9 -0.25 -2.89 -0.25 -2.9 -0.25 -2.89 -0.25 -1.36 -0.93 h 20.94 v 0.93 1.36 0.25 2.89 0.25 2.9 0.25 2.89 0.25 2.9 0.25 2.9 0.25 2.89 0.25 2.9 0.25 2.9 0.25 2.89 0.25 2.9 0.25 2.89 0.25 3.81 0.3 1.29 0.3 0.01 h 0.3 v -0.01 -0.3 -1.29 -0.3 -21.63 -17.45 -0.94 -0.93 h 1.32 v 0.93 0.94 17.45 21.63 0.3 1.29 0.3 0.01 h 0.3 v -0.01 -0.3 -1.29 -0.3 -2.31 -0.25 -2.89 -0.25 -2.89 -0.25 -2.89 -0.25 -2.89 -0.25 -2.89 -0.25 -2.9 -0.25 -2.89 -0.25 -2.89 -0.25 -2.89 -0.25 -2.89 -0.25 -2.9 -0.25 -3.83 -0.3 h -22.86 -0.28 -0.02 v 0.25 h -3.98 v 1.3 2.14 56.77 4 h 4 44.35 4 v -4 -60.46 z" />
      <path
         id="rect113"
         style="fill:#898989;stroke-width:0"
         d="m 936.07001,370.66 h 1.32 v 0.3 h -1.32 z" />
      <path
         id="rect114"
         style="fill:#898989;stroke-width:0"
         d="m 936.07001,369.07001 h 1.32 v 0.3 h -1.32 z" />
      <path
         id="rect115"
         style="fill:#898989;stroke-width:0"
         d="m 937.69,335.10001 h 1.37 v 0.25 h -1.37 z" />
      <path
         id="rect116"
         style="fill:#898989;stroke-width:0"
         d="m 957.27002,335.10001 h 1.63 v 0.25 h -1.63 z" />
      <path
         id="rect117"
         style="fill:#898989;stroke-width:0"
         d="m 957.27002,331.95001 h 1.63 v 0.25 h -1.63 z" />
      <path
         id="rect118"
         style="fill:#898989;stroke-width:0"
         d="m 937.69,331.95001 h 1.37 v 0.25 h -1.37 z" />
      <path
         id="rect119"
         style="fill:#898989;stroke-width:0"
         d="m 937.69,338.23999 h 1.37 v 0.25 h -1.37 z" />
      <path
         id="rect120"
         style="fill:#898989;stroke-width:0"
         d="m 957.27002,338.23999 h 1.63 v 0.25 h -1.63 z" />
    </g>
    <path
       id="polygon120"
       style="fill:#898989;stroke-width:0"
       d="m 944.85,269.05 h 14.05 v 4.16 h 4 v -4.16 -4 h -4 -44.35 -4 v 4 19.79 h -9.57 V 277.12 H 901 v -4 H 718.88 V 4 h 0.02 V 0 H 516.98 V 4 H 517 v 285.18 h 4 v -11.94 h 63.93 v 0 h 1.3 v 0 -1.67 -25.32 h -1.3 v 25.32 H 521 v -37.4 h 63.93 v 0.91 h 1.3 v -16.49 h -1.3 v 14.28 H 521 v -37.76 h 63.93 v 12.31 h 1.3 v -14.4 h -1.3 v 0.79 H 521 v -24.47 h 63.93 v 12.51 h 1.3 v -28.3 h -1.3 v 14.49 H 521 v -37.88 h 63.93 v 12.22 h 1.3 v -27.83 h -1.3 v 14.31 H 521 V 95.09 h 63.93 v 12.29 h 1.3 V 81.17 h -1.3 V 93.79 H 521 v -24.7 h 63.93 V 70 h 1.3 V 55.13 h -1.3 V 67.79 H 521 V 43.11 h 63.93 v 0.85 h 1.3 V 27.48 h -1.3 V 41.81 H 521 V 4 h 63.93 v 12.31 h 1.3 V 4 h 50.73 v 12.31 h 1.3 V 4 h 76.62 V 41.81 H 638.26 V 27.48 h -1.3 v 27.88 h 1.3 V 43.11 h 76.62 V 80.79 H 638.26 V 66.53 h -1.3 v 27.83 h 1.3 V 82.09 h 76.62 v 37.72 h -76.62 v -14.28 h -1.3 v 14.28 h -26.09 v 1.3 h 104.01 v 76.74 H 612.17 v -29.27 h -1.3 v 56.07 h 1.3 v -25.5 h 102.71 v 73.97 h -0.02 v 2.45 H 612.17 v -39.76 h -1.3 v 39.76 1.67 0 h 1.3 v 0 H 716.8 v -0.12 h 2.08 178.1 v 13.02 h 3.65 0.35 9.57 2.36 1.64 7.68 v -1.6 h -7.68 v -19.49 h 28.7 v 19.49 h -6.88 v 1.6 h 9.16 v -1.6 h -0.68 z" />
    <path
       id="polygon121"
       style="fill:#898989;stroke-width:0"
       d="m 958.9,283.44 v 5.1 h -6.61 v 1.6 h 6.61 v 37.68 h 4 v -44.38 z" />
  </g>
  <g
     id="way">
    <path
       id="_11"
       style="fill:#bebeb4;stroke-width:0"
       d="m 422.85999,298.19 h 47.18999 v 4 h -47.18999 z" />
    <path
       id="_12"
       style="fill:#bebeb4;stroke-width:0"
       d="m 388.50431,298.19 h 35.38226 v 4 h -35.38226 z"
       sodipodi:nodetypes="ccccc" />
    <path
       id="_03"
       style="fill:#bebeb4;stroke-width:0"
       d="m 388.42999,298.19 h 4 v 36.84 h -4 z" />
    <path
       id="_14"
       style="fill:#bebeb4;stroke-width:0"
       d="m 384.13,333.03 h 6.5 v 2 h -6.5 z" />
    <path
       id="_15"
       style="fill:#bebeb4;stroke-width:0"
       d="m 390.66,333.03 h 6.5 v 2 h -6.5 z" />
    <path
       id="_16"
       style="fill:#bebeb4;stroke-width:0"
       d="m 357.94,298.19 h 31.87 c -0.96318,1.48744 -2.52032,3.06992 0,4 h -31.87 z"
       sodipodi:nodetypes="ccccc" />
    <path
       id="_17"
       style="fill:#bebeb4;stroke-width:0"
       d="m 323.44,298.19 h 35.18 v 4 h -35.18 z" />
    <path
       id="_18"
       style="fill:#bebeb4;stroke-width:0"
       d="m 323.42001,298.19 h 4 v 102.26 h -4 z" />
    <path
       id="_19"
       style="fill:#bebeb4;stroke-width:0"
       d="m 323.42001,400.45001 h 4 v 26.77 h -4 z" />
    <path
       id="_110"
       style="fill:#bebeb4;stroke-width:0"
       d="m 323.42001,427.22 h 4 v 25.51 h -4 z" />
    <path
       id="_111"
       style="fill:#bebeb4;stroke-width:0"
       d="m 323.42001,452.34 h 4 v 26.38 h -4 z" />
    <path
       id="_112"
       style="fill:#bebeb4;stroke-width:0"
       d="m 323.42001,478.72 h 4 v 26.17 h -4 z" />
    <path
       id="_113"
       style="fill:#bebeb4;stroke-width:0"
       d="m 323.42001,504.89001 h 4 v 14.83 h -4 z" />
    <path
       id="_114"
       style="fill:#bebeb4;stroke-width:0"
       d="m 323.42001,519.71997 h 4 v 24.55 h -4 z" />
    <path
       id="_115"
       style="fill:#bebeb4;stroke-width:0"
       d="m 323.42001,544.27002 h 4 v 26.21 h -4 z" />
    <path
       id="_116"
       style="fill:#bebeb4;stroke-width:0"
       d="m 323.42001,570.47998 h 4 v 13.11 h -4 z" />
    <path
       id="_117"
       style="fill:#bebeb4;stroke-width:0"
       d="m 323.42001,583.59003 h 4 v 38.7 h -4 z" />
    <path
       id="_132"
       style="fill:#bebeb4;stroke-width:0"
       d="m 20.459999,298.19 h 18.25 v 4 h -18.25 z" />
    <path
       id="_133"
       style="fill:#bebeb4;stroke-width:0"
       d="m 14.25,298.19 h 7.21 v 4 h -7.21 z" />
    <path
       id="_123"
       style="fill:#bebeb4;stroke-width:0"
       d="m 141.34,227.89 h 4 v 31.2 h -4 z" />
    <path
       id="_124"
       style="fill:#bebeb4;stroke-width:0"
       d="m 141.34,149.67 h 4 v 80.21 h -4 z" />
    <path
       id="_127"
       style="fill:#bebeb4;stroke-width:0"
       d="m 141.34,46.57 h 4 v 28.040001 h -4 z" />
    <path
       id="_126"
       style="fill:#bebeb4;stroke-width:0"
       d="m 141.34,72.18 h 4 v 40.81 h -4 z" />
    <path
       id="_125"
       style="fill:#bebeb4;stroke-width:0"
       d="m 141.34,110.99 h 4 v 41.16 h -4 z" />
    <path
       id="_122"
       style="fill:#bebeb4;stroke-width:0"
       d="m 141.34,255.08 h 4 v 47.11 h -4 z" />
    <path
       id="_131"
       style="fill:#bebeb4;stroke-width:0"
       d="m 36.709999,298.19 h 47.689999 v 4 H 36.709999 Z" />
    <path
       id="_130"
       style="fill:#bebeb4;stroke-width:0"
       d="M 82.400002,298.19 H 137.04 v 4 H 82.400002 Z" />
    <path
       id="_121"
       style="fill:#bebeb4;stroke-width:0"
       d="m 141.32001,298.19 h 36.91 v 4 h -36.91 z" />
    <path
       id="_129"
       style="fill:#bebeb4;stroke-width:0"
       d="m 135.59,298.19 h 9.75 v 4 h -9.75 z" />
    <path
       id="_118"
       style="fill:#bebeb4;stroke-width:0"
       d="m 265,298.19 h 62.42 v 4 H 265 Z" />
    <path
       id="_119"
       style="fill:#bebeb4;stroke-width:0"
       d="m 226.19,298.19 h 41.2 v 4 h -41.2 z" />
    <path
       id="_120"
       style="fill:#bebeb4;stroke-width:0"
       d="m 174.23,298.19 h 53.95999 v 4 H 174.23 Z" />
    <path
       id="_128"
       style="fill:#bebeb4;stroke-width:0"
       d="m 141.34,20.18 h 4 v 28.39 h -4 z" />
    <path
       id="_20"
       style="fill:#bebeb4;stroke-width:0"
       d="m 473.76999,298.19 h 19.93 v 4 h -19.93 z" />
    <path
       id="_01"
       style="fill:#bebeb4;stroke-width:0"
       d="m 493.53,298.19 h 46.43 v 4 h -46.43 z" />
    <path
       id="_02"
       style="fill:#bebeb4;stroke-width:0"
       d="m 537.96997,298.19 h 30.14 v 4 h -30.14 z" />
    <path
       id="_03-2"
       style="fill:#bebeb4;stroke-width:0"
       d="m 567.06,298.19 h 26.65 v 4 h -26.65 z" />
    <path
       id="_04"
       style="fill:#bebeb4;stroke-width:0"
       d="m 592.40997,298.19 h 8.14 v 4 h -8.14 z" />
    <path
       id="_05"
       style="fill:#bebeb4;stroke-width:0"
       d="m 596.54999,244.97 h 4 v 57.22 h -4 z" />
    <path
       id="_06"
       style="fill:#bebeb4;stroke-width:0"
       d="m 596.54999,230.23 h 4 v 14.74 h -4 z" />
    <path
       id="_07"
       style="fill:#bebeb4;stroke-width:0"
       d="m 596.54999,216.50999 h 4 v 14.1 h -4 z" />
    <path
       id="_08"
       style="fill:#bebeb4;stroke-width:0"
       d="m 596.54999,191.28999 h 4 v 25.21 h -4 z" />
    <path
       id="_09"
       style="fill:#bebeb4;stroke-width:0"
       d="m 596.54999,163 h 4 v 28.29 h -4 z" />
    <path
       id="_010"
       style="fill:#bebeb4;stroke-width:0"
       d="m 596.54999,151.8 h 4 v 11.32 h -4 z" />
    <path
       id="_011"
       style="fill:#bebeb4;stroke-width:0"
       d="m 596.54999,112.66 h 4 v 39.39 h -4 z" />
    <path
       id="_012"
       style="fill:#bebeb4;stroke-width:0"
       d="m 596.54999,99.949997 h 4 V 113.17 h -4 z" />
    <path
       id="_013"
       style="fill:#bebeb4;stroke-width:0"
       d="m 596.54999,75.459999 h 4 v 24.48 h -4 z" />
    <path
       id="_014"
       style="fill:#bebeb4;stroke-width:0"
       d="m 596.54999,58.939999 h 4 v 16.709999 h -4 z" />
    <path
       id="_016"
       style="fill:#bebeb4;stroke-width:0"
       d="m 596.54999,21.9 h 4 v 27.5 h -4 z" />
    <path
       id="_017"
       transform="translate(1217.83 600.38) rotate(180)"
       style="fill:#bebeb4;stroke-width:0"
       d="m 598.54999,298.19 h 20.73 v 4 h -20.73 z" />
    <path
       id="_018"
       style="fill:#bebeb4;stroke-width:0"
       d="m 617.75,298.19 h 25.96 v 4 h -25.96 z" />
    <path
       id="_019"
       style="fill:#bebeb4;stroke-width:0"
       d="m 641.77002,298.19 h 43.21 v 4 h -43.21 z" />
    <path
       id="_020"
       style="fill:#bebeb4;stroke-width:0"
       d="m 682.92999,298.19 h 97.75 v 4 h -97.75 z" />
    <path
       id="_028"
       style="fill:#bebeb4;stroke-width:0"
       d="m 778.69,622.28003 h 4 v 14.95 h -4 z" />
    <path
       id="_026"
       style="fill:#bebeb4;stroke-width:0"
       d="m 778.69,504.82999 h 4 v 15.71 h -4 z" />
    <path
       id="_024"
       style="fill:#bebeb4;stroke-width:0"
       d="m 778.69,427.22 h 4 v 13.76 h -4 z" />
    <path
       id="_023"
       style="fill:#bebeb4;stroke-width:0"
       d="m 778.69,388.16 h 4 v 41.05 h -4 z" />
    <path
       id="_022"
       style="fill:#bebeb4;stroke-width:0"
       d="m 778.69,349.22 h 4 v 40.95 h -4 z" />
    <path
       id="_021"
       style="fill:#bebeb4;stroke-width:0"
       d="m 778.69,298.19 h 4 v 53.02 h -4 z" />
    <path
       id="_024-2"
       style="fill:#bebeb4;stroke-width:0"
       d="m 778.69,437.67999 h 4 v 69.15 h -4 z" />
    <path
       id="_027"
       style="fill:#bebeb4;stroke-width:0"
       d="m 778.69,517.17999 h 4 v 106.59 h -4 z" />
    <path
       id="_029"
       style="fill:#bebeb4;stroke-width:0"
       d="m 780.69,298.19 h 93 v 4 h -93 z" />
    <path
       id="_033"
       style="fill:#bebeb4;stroke-width:0"
       d="m 871.40997,298.19 h 78.74 v 4 h -78.74 z" />
    <path
       id="_030"
       style="fill:#bebeb4;stroke-width:0"
       d="m 869.69,298.19 h 4 v 25.41 h -4 z" />
    <path
       id="_031"
       style="fill:#bebeb4;stroke-width:0"
       d="m 865.09003,321.60999 h 6.65 v 2 h -6.65 z" />
    <path
       id="_032"
       style="fill:#bebeb4;stroke-width:0"
       d="m 871.62,321.60999 h 6.65 v 2 h -6.65 z" />
    <path
       id="_015"
       style="fill:#bebeb4;stroke-width:0"
       d="m 596.54999,48.68 h 4 v 14.270001 h -4 z" />
  </g>
  <g
     id="Points">
    <g
       id="_1107">
      <path
         id="rect121"
         style="fill:#bebeb4;stroke-width:0"
         d="m 143.50999,227.89 h 8.36 v 4 h -8.36 z" />
      <path
         id="circle121"
         style="fill:#158e30;stroke-width:0"
         d="m 155.69,229.89 a 4,4 0 0 1 -4,4 4,4 0 0 1 -4,-4 4,4 0 0 1 4,-4 4,4 0 0 1 4,4 z" />
    </g>
    <g
       id="_1106">
      <path
         id="rect122"
         style="fill:#bebeb4;stroke-width:0"
         d="m 141.34,149.67 h 10.54 v 4 h -10.54 z" />
      <path
         id="circle122"
         style="fill:#158e30;stroke-width:0"
         d="m 155.69,151.67 a 4,4 0 0 1 -4,4 4,4 0 0 1 -4,-4 4,4 0 0 1 4,-4 4,4 0 0 1 4,4 z" />
    </g>
    <g
       id="_1105">
      <path
         id="rect123"
         style="fill:#bebeb4;stroke-width:0"
         d="m 143.50999,20.18 h 8.36 v 4 h -8.36 z" />
      <path
         id="circle123"
         style="fill:#158e30;stroke-width:0"
         d="m 155.69,22.18 a 4,4 0 0 1 -4,4 4,4 0 0 1 -4,-4 4,4 0 0 1 4,-4 4,4 0 0 1 4,4 z" />
    </g>
    <g
       id="_1104">
      <path
         id="rect124"
         style="fill:#bebeb4;stroke-width:0"
         d="m 135.73,20.18 h 8.36 v 4 h -8.36 z" />
      <path
         id="circle124"
         style="fill:#158e30;stroke-width:0"
         d="m 138.98,22.18 a 4,4 0 0 1 -4,4 4,4 0 0 1 -4,-4 4,4 0 0 1 4,-4 4,4 0 0 1 4,4 z" />
    </g>
    <g
       id="_1103">
      <path
         id="rect125"
         style="fill:#bebeb4;stroke-width:0"
         d="m 135.73,46.57 h 8.36 v 4 h -8.36 z" />
      <path
         id="circle125"
         style="fill:#158e30;stroke-width:0"
         d="m 138.98,48.23 a 4,4 0 0 1 -4,4 4,4 0 0 1 -4,-4 4,4 0 0 1 4,-4 4,4 0 0 1 4,4 z" />
    </g>
    <g
       id="_1102">
      <path
         id="rect126"
         style="fill:#bebeb4;stroke-width:0"
         d="m 135.73,72.18 h 8.36 v 4 h -8.36 z" />
      <path
         id="circle126"
         style="fill:#158e30;stroke-width:0"
         d="m 138.98,74.18 a 4,4 0 0 1 -4,4 4,4 0 0 1 -4,-4 4,4 0 0 1 4,-4 4,4 0 0 1 4,4 z" />
    </g>
    <g
       id="_1101">
      <path
         id="rect127"
         style="fill:#bebeb4;stroke-width:0"
         d="m 135.73,110.99 h 8.36 v 4 h -8.36 z" />
      <path
         id="circle127"
         style="fill:#158e30;stroke-width:0"
         d="m 138.98,112.99 a 4,4 0 0 1 -4,4 4,4 0 0 1 -4,-4 4,4 0 0 1 4,-4 4,4 0 0 1 4,4 z" />
    </g>
    <g
       id="_1100">
      <path
         id="rect128"
         style="fill:#bebeb4;stroke-width:0"
         d="m 134.98,255.08 h 8.36 v 4 h -8.36 z" />
      <path
         id="circle128"
         style="fill:#158e30;stroke-width:0"
         d="m 138.98,257.07999 a 4,4 0 0 1 -4,4 4,4 0 0 1 -4,-4 4,4 0 0 1 4,-4 4,4 0 0 1 4,4 z" />
    </g>
    <g
       id="_0124">
      <path
         id="rect129"
         style="fill:#bebeb4;stroke-width:0"
         d="m 772.28003,633.22998 h 10.42 v 4 h -10.42 z" />
      <path
         id="circle129"
         style="fill:#158e30;stroke-width:0"
         d="m 776.28003,635.22998 a 4,4 0 0 1 -4,4 4,4 0 0 1 -4,-4 4,4 0 0 1 4,-4 4,4 0 0 1 4,4 z" />
    </g>
    <g
       id="_0125">
      <path
         id="rect130"
         style="fill:#bebeb4;stroke-width:0"
         d="m 772.28003,516.53998 h 10.42 v 4 h -10.42 z" />
      <path
         id="circle130"
         style="fill:#158e30;stroke-width:0"
         d="m 776.28003,518.53998 a 4,4 0 0 1 -4,4 4,4 0 0 1 -4,-4 4,4 0 0 1 4,-4 4,4 0 0 1 4,4 z" />
    </g>
    <g
       id="_0126">
      <path
         id="rect131"
         style="fill:#bebeb4;stroke-width:0"
         d="m 772.28003,436.97 h 10.42 v 4 h -10.42 z" />
      <path
         id="circle131"
         style="fill:#158e30;stroke-width:0"
         d="m 776.28003,438.97 a 4,4 0 0 1 -4,4 4,4 0 0 1 -4,-4 4,4 0 0 1 4,-4 4,4 0 0 1 4,4 z" />
    </g>
    <g
       id="_0121">
      <path
         id="rect132"
         style="fill:#bebeb4;stroke-width:0"
         d="m 778.69,425.22 h 11.68 v 4 h -11.68 z" />
      <path
         id="circle132"
         style="fill:#158e30;stroke-width:0"
         d="m 792.96002,427.22 a 4,4 0 0 1 -4,4 4,4 0 0 1 -4,-4 4,4 0 0 1 4,-4 4,4 0 0 1 4,4 z" />
    </g>
    <g
       id="_0127">
      <path
         id="rect133"
         style="fill:#bebeb4;stroke-width:0"
         d="m 772.28003,386.16 h 10.42 v 4 h -10.42 z" />
      <path
         id="circle133"
         style="fill:#158e30;stroke-width:0"
         d="m 776.28003,388.16 a 4,4 0 0 1 -4,4 4,4 0 0 1 -4,-4 4,4 0 0 1 4,-4 4,4 0 0 1 4,4 z" />
    </g>
    <g
       id="_0120">
      <path
         id="rect134"
         style="fill:#bebeb4;stroke-width:0"
         d="m 778.69,347.22 h 11.68 v 4 h -11.68 z" />
      <path
         id="circle134"
         style="fill:#158e30;stroke-width:0"
         d="m 792.96002,349.22 a 4,4 0 0 1 -4,4 4,4 0 0 1 -4,-4 4,4 0 0 1 4,-4 4,4 0 0 1 4,4 z" />
    </g>
    <g
       id="_0122">
      <path
         id="rect135"
         style="fill:#bebeb4;stroke-width:0"
         d="m 778.69,502.82999 h 11.68 v 4 h -11.68 z" />
      <path
         id="circle135"
         style="fill:#158e30;stroke-width:0"
         d="m 792.96002,504.82999 a 4,4 0 0 1 -4,4 4,4 0 0 1 -4,-4 4,4 0 0 1 4,-4 4,4 0 0 1 4,4 z" />
    </g>
    <g
       id="_0123">
      <path
         id="rect136"
         style="fill:#bebeb4;stroke-width:0"
         d="m 778.69,619.77002 h 11.68 v 4 h -11.68 z" />
      <path
         id="circle136"
         style="fill:#158e30;stroke-width:0"
         d="m 792.96002,621.77002 a 4,4 0 0 1 -4,4 4,4 0 0 1 -4,-4 4,4 0 0 1 4,-4 4,4 0 0 1 4,4 z" />
    </g>
    <g
       id="_1129">
      <path
         id="rect137"
         style="fill:#bebeb4;stroke-width:0"
         d="m 265,298.19 h 4 v 13.96 h -4 z" />
      <path
         id="circle137"
         style="fill:#158e30;stroke-width:0"
         d="m 271,310.92999 a 4,4 0 0 1 -4,4 4,4 0 0 1 -4,-4 4,4 0 0 1 4,-4 4,4 0 0 1 4,4 z" />
    </g>
    <g
       id="_1140">
      <path
         id="rect138"
         style="fill:#bebeb4;stroke-width:0"
         d="m 226.19,298.19 h 4 v 13.96 h -4 z" />
      <path
         id="circle138"
         style="fill:#158e30;stroke-width:0"
         d="m 232.19,310.92999 a 4,4 0 0 1 -4,4 4,4 0 0 1 -4,-4 4,4 0 0 1 4,-4 4,4 0 0 1 4,4 z" />
    </g>
    <g
       id="_1141">
      <path
         id="rect139"
         style="fill:#bebeb4;stroke-width:0"
         d="m 174.23,298.19 h 4 v 13.96 h -4 z" />
      <path
         id="circle139"
         style="fill:#158e30;stroke-width:0"
         d="m 180.23,310.92999 a 4,4 0 0 1 -4,4 4,4 0 0 1 -4,-4 4,4 0 0 1 4,-4 4,4 0 0 1 4,4 z" />
    </g>
    <g
       id="_1142">
      <path
         id="rect140"
         style="fill:#bebeb4;stroke-width:0"
         d="m 135.59,298.19 h 4 v 13.96 h -4 z" />
      <path
         id="circle140"
         style="fill:#158e30;stroke-width:0"
         d="m 141.59,310.92999 a 4,4 0 0 1 -4,4 4,4 0 0 1 -4,-4 4,4 0 0 1 4,-4 4,4 0 0 1 4,4 z" />
    </g>
    <g
       id="_1143">
      <path
         id="rect141"
         style="fill:#bebeb4;stroke-width:0"
         d="m 82.400002,298.19 h 4 v 13.96 h -4 z" />
      <path
         id="circle141"
         style="fill:#158e30;stroke-width:0"
         d="m 88.400002,310.92999 a 4,4 0 0 1 -4,4 4,4 0 0 1 -4,-4 4,4 0 0 1 4,-4 4,4 0 0 1 4,4 z" />
    </g>
    <g
       id="_1179">
      <path
         id="rect142"
         style="fill:#bebeb4;stroke-width:0"
         d="m 20.459999,289.39999 h 2 v 12.79 h -2 z" />
      <path
         id="circle142"
         style="fill:#158e30;stroke-width:0"
         d="m 23.459999,289.60001 a 2,2 0 0 1 -2,2 2,2 0 0 1 -2,-2 2,2 0 0 1 2,-2 2,2 0 0 1 2,2 z" />
    </g>
    <g
       id="_1120">
      <path
         id="rect143"
         style="fill:#bebeb4;stroke-width:0"
         d="m 323.44,398.45001 h 10.34 v 4 h -10.34 z" />
      <path
         id="circle143"
         style="fill:#158e30;stroke-width:0"
         d="m 337.76999,400.45001 a 4,4 0 0 1 -4,4 4,4 0 0 1 -4,-4 4,4 0 0 1 4,-4 4,4 0 0 1 4,4 z" />
    </g>
    <g
       id="_1121">
      <path
         id="rect144"
         style="fill:#bebeb4;stroke-width:0"
         d="m 323.44,502.89001 h 10.34 v 4 h -10.34 z" />
      <path
         id="circle144"
         style="fill:#158e30;stroke-width:0"
         d="m 337.76999,504.89001 a 4,4 0 0 1 -4,4 4,4 0 0 1 -4,-4 4,4 0 0 1 4,-4 4,4 0 0 1 4,4 z" />
    </g>
    <g
       id="_1122">
      <path
         id="rect145"
         style="fill:#bebeb4;stroke-width:0"
         d="m 323.44,542.27002 h 10.34 v 4 h -10.34 z" />
      <path
         id="circle145"
         style="fill:#158e30;stroke-width:0"
         d="m 337.76999,544.27002 a 4,4 0 0 1 -4,4 4,4 0 0 1 -4,-4 4,4 0 0 1 4,-4 4,4 0 0 1 4,4 z" />
    </g>
    <g
       id="_1123">
      <path
         id="rect146"
         style="fill:#bebeb4;stroke-width:0"
         d="m 323.44,581.08002 h 10.34 v 4 h -10.34 z" />
      <path
         id="circle146"
         style="fill:#158e30;stroke-width:0"
         d="m 337.76999,583.08002 a 4,4 0 0 1 -4,4 4,4 0 0 1 -4,-4 4,4 0 0 1 4,-4 4,4 0 0 1 4,4 z" />
    </g>
    <g
       id="_1124">
      <path
         id="rect147"
         style="fill:#bebeb4;stroke-width:0"
         d="m 317.06,620.28998 h 10.36 v 4 h -10.36 z" />
      <path
         id="circle147"
         style="fill:#158e30;stroke-width:0"
         d="m 320.84,622.28998 a 4,4 0 0 1 -4,4 4,4 0 0 1 -4,-4 4,4 0 0 1 4,-4 4,4 0 0 1 4,4 z" />
    </g>
    <g
       id="_1125">
      <path
         id="rect148"
         style="fill:#bebeb4;stroke-width:0"
         d="m 317.06,568.47998 h 10.36 v 4 h -10.36 z" />
      <path
         id="circle148"
         style="fill:#158e30;stroke-width:0"
         d="m 321.06,570.47998 a 4,4 0 0 1 -4,4 4,4 0 0 1 -4,-4 4,4 0 0 1 4,-4 4,4 0 0 1 4,4 z" />
    </g>
    <g
       id="_1126">
      <path
         id="rect149"
         style="fill:#bebeb4;stroke-width:0"
         d="m 317.07999,516.97998 h 10.34 v 4 h -10.34 z" />
      <path
         id="circle149"
         style="fill:#158e30;stroke-width:0"
         d="m 321.06,518.97998 a 4,4 0 0 1 -4,4 4,4 0 0 1 -4,-4 4,4 0 0 1 4,-4 4,4 0 0 1 4,4 z" />
    </g>
    <g
       id="_1127">
      <path
         id="rect150"
         style="fill:#bebeb4;stroke-width:0"
         d="m 317.07999,476.72 h 10.34 v 4 h -10.34 z" />
      <path
         id="circle150"
         style="fill:#158e30;stroke-width:0"
         d="m 321.06,478.72 a 4,4 0 0 1 -4,4 4,4 0 0 1 -4,-4 4,4 0 0 1 4,-4 4,4 0 0 1 4,4 z" />
    </g>
    <g
       id="_1128">
      <path
         id="rect151"
         style="fill:#bebeb4;stroke-width:0"
         d="m 317.07999,425.22 h 10.34 v 4 h -10.34 z" />
      <path
         id="circle151"
         style="fill:#158e30;stroke-width:0"
         d="m 321.06,427.22 a 4,4 0 0 1 -4,4 4,4 0 0 1 -4,-4 4,4 0 0 1 4,-4 4,4 0 0 1 4,4 z" />
    </g>
    <g
       id="_1174">
      <path
         id="rect152"
         style="fill:#bebeb4;stroke-width:0"
         d="m 421.85999,298.19 h 2 v 17.54 h -2 z" />
      <path
         id="circle152"
         style="fill:#158e30;stroke-width:0"
         d="m 424.85999,315.73001 a 2,2 0 0 1 -2,2 2,2 0 0 1 -2,-2 2,2 0 0 1 2,-2 2,2 0 0 1 2,2 z" />
    </g>
    <g
       id="_1180">
      <path
         id="rect153"
         style="fill:#bebeb4;stroke-width:0"
         d="m 397.09,333.03 h 6.5 v 2 h -6.5 z" />
      <path
         id="circle153"
         style="fill:#158e30;stroke-width:0"
         d="m 405.44,334.03 a 2,2 0 0 1 -2,2 2,2 0 0 1 -2,-2 2,2 0 0 1 2,-2 2,2 0 0 1 2,2 z" />
    </g>
    <g
       id="_1182">
      <path
         id="rect154"
         style="fill:#bebeb4;stroke-width:0"
         d="m 395.94,334.03 h 2 v 7.2 h -2 z" />
      <path
         id="circle154"
         style="fill:#158e30;stroke-width:0"
         d="m 398.94,341.10999 a 2,2 0 0 1 -2,2 2,2 0 0 1 -2,-2 2,2 0 0 1 2,-2 2,2 0 0 1 2,2 z" />
    </g>
    <g
       id="_1183">
      <path
         id="rect155"
         style="fill:#bebeb4;stroke-width:0"
         d="m 383.04999,334.59 h 2 v 6.64 h -2 z" />
      <path
         id="circle155"
         style="fill:#158e30;stroke-width:0"
         d="m 386.04999,341.23001 a 2,2 0 0 1 -2,2 2,2 0 0 1 -2,-2 2,2 0 0 1 2,-2 2,2 0 0 1 2,2 z" />
    </g>
    <g
       id="_1184">
      <path
         id="rect156"
         style="fill:#bebeb4;stroke-width:0"
         d="m 377.64999,333.03 h 6.5 v 2 h -6.5 z" />
      <path
         id="circle156"
         style="fill:#158e30;stroke-width:0"
         d="m 379.42001,334.03 a 2,2 0 0 1 -2,2 2,2 0 0 1 -2,-2 2,2 0 0 1 2,-2 2,2 0 0 1 2,2 z" />
    </g>
    <g
       id="_1175">
      <path
         id="rect157"
         style="fill:#bebeb4;stroke-width:0"
         d="m 356.94,298.19 h 2 v 17.54 h -2 z" />
      <path
         id="circle157"
         style="fill:#158e30;stroke-width:0"
         d="m 359.94,315.73001 a 2,2 0 0 1 -2,2 2,2 0 0 1 -2,-2 2,2 0 0 1 2,-2 2,2 0 0 1 2,2 z" />
    </g>
    <g
       id="_2000">
      <path
         id="rect158"
         style="fill:#bebeb4;stroke-width:0"
         d="m 468.04999,298.19 h 4 v 29.66 h -4 z" />
      <path
         id="rect159"
         style="fill:#bebeb4;stroke-width:0"
         d="m 468.04999,298.19 h 6.64 v 4 h -6.64 z" />
    </g>
    <g
       id="_2200">
      <path
         id="rect160"
         style="fill:#bebeb4;stroke-width:0"
         d="m 490.89001,298.19 h 4 v 29.66 h -4 z" />
    </g>
    <g
       id="_1200">
      <path
         id="rect161"
         style="fill:#bebeb4;stroke-width:0"
         d="m 36.709999,298.19 h 4 v 29.79 h -4 z" />
    </g>
    <g
       id="_2179">
      <path
         id="rect162"
         style="fill:#bebeb4;stroke-width:0"
         d="m 492.70001,289.17999 h 2 v 13.01 h -2 z" />
      <path
         id="circle162"
         style="fill:#158e30;stroke-width:0"
         d="m 495.70001,289.32001 a 2,2 0 0 1 -2,2 2,2 0 0 1 -2,-2 2,2 0 0 1 2,-2 2,2 0 0 1 2,2 z" />
    </g>
    <g
       id="_1000">
      <path
         id="rect163"
         style="fill:#bebeb4;stroke-width:0"
         d="m 12.8,298.19 h 4 v 29.79 h -4 z" />
    </g>
    <g
       id="_0179">
      <path
         id="rect164"
         style="fill:#bebeb4;stroke-width:0"
         d="m 948.15002,289.72 h 2 v 12.47 h -2 z" />
      <path
         id="circle164"
         style="fill:#158e30;stroke-width:0"
         d="m 951.06,289.48999 a 2,2 0 0 1 -2,2 2,2 0 0 1 -2,-2 2,2 0 0 1 2,-2 2,2 0 0 1 2,2 z" />
    </g>
    <g
       id="_0200">
      <path
         id="rect165"
         style="fill:#bebeb4;stroke-width:0"
         d="m 946.15002,298.19 h 4 v 29.62 h -4 z" />
    </g>
    <g
       id="_0140">
      <path
         id="rect166"
         style="fill:#bebeb4;stroke-width:0"
         d="m 680.97998,298.19 h 4 v 13.96 h -4 z" />
      <path
         id="circle166"
         style="fill:#158e30;stroke-width:0"
         d="m 687.12,310.92999 a 4,4 0 0 1 -4,4 4,4 0 0 1 -4,-4 4,4 0 0 1 4,-4 4,4 0 0 1 4,4 z" />
    </g>
    <g
       id="_0141">
      <path
         id="rect167"
         style="fill:#bebeb4;stroke-width:0"
         d="m 641.71002,298.19 h 4 v 13.96 h -4 z" />
      <path
         id="circle167"
         style="fill:#158e30;stroke-width:0"
         d="m 647.71002,310.92999 a 4,4 0 0 1 -4,4 4,4 0 0 1 -4,-4 4,4 0 0 1 4,-4 4,4 0 0 1 4,4 z" />
    </g>
    <g
       id="_0142">
      <path
         id="rect168"
         style="fill:#bebeb4;stroke-width:0"
         d="m 616.17999,298.19 h 4 v 13.96 h -4 z" />
      <path
         id="circle168"
         style="fill:#158e30;stroke-width:0"
         d="m 622.17999,310.92999 a 4,4 0 0 1 -4,4 4,4 0 0 1 -4,-4 4,4 0 0 1 4,-4 4,4 0 0 1 4,4 z" />
    </g>
    <g
       id="_0143">
      <path
         id="rect169"
         style="fill:#bebeb4;stroke-width:0"
         d="m 589.71002,298.19 h 4 v 13.96 h -4 z" />
      <path
         id="circle169"
         style="fill:#158e30;stroke-width:0"
         d="m 595.71002,310.92999 a 4,4 0 0 1 -4,4 4,4 0 0 1 -4,-4 4,4 0 0 1 4,-4 4,4 0 0 1 4,4 z" />
    </g>
    <g
       id="_0144">
      <path
         id="rect170"
         style="fill:#bebeb4;stroke-width:0"
         d="m 564.10999,298.19 h 4 v 13.96 h -4 z" />
      <path
         id="circle170"
         style="fill:#158e30;stroke-width:0"
         d="m 570.17999,310.92999 a 4,4 0 0 1 -4,4 4,4 0 0 1 -4,-4 4,4 0 0 1 4,-4 4,4 0 0 1 4,4 z" />
    </g>
    <g
       id="_0145">
      <path
         id="rect171"
         style="fill:#bebeb4;stroke-width:0"
         d="m 537.96997,298.19 h 4 v 13.96 h -4 z" />
      <path
         id="circle171"
         style="fill:#158e30;stroke-width:0"
         d="m 543.96997,310.92999 a 4,4 0 0 1 -4,4 4,4 0 0 1 -4,-4 4,4 0 0 1 4,-4 4,4 0 0 1 4,4 z" />
    </g>
    <g
       id="_0112">
      <path
         id="rect172"
         style="fill:#bebeb4;stroke-width:0"
         d="m 596.54999,228.23 h 10.38 v 4 h -10.38 z" />
      <path
         id="circle172"
         style="fill:#158e30;stroke-width:0"
         d="m 610.92999,230.23 a 4,4 0 0 1 -4,4 4,4 0 0 1 -4,-4 4,4 0 0 1 4,-4 4,4 0 0 1 4,4 z" />
    </g>
    <g
       id="_0111">
      <path
         id="rect173"
         style="fill:#bebeb4;stroke-width:0"
         d="m 596.54999,161.13 h 10.38 v 4 h -10.38 z" />
      <path
         id="circle173"
         style="fill:#158e30;stroke-width:0"
         d="m 610.92999,163 a 4,4 0 0 1 -4,4 4,4 0 0 1 -4,-4 4,4 0 0 1 4,-4 4,4 0 0 1 4,4 z" />
    </g>
    <g
       id="_0110">
      <path
         id="rect174"
         style="fill:#bebeb4;stroke-width:0"
         d="m 596.54999,97.949997 h 36.43 V 101.95 h -36.43 z" />
      <path
         id="circle174"
         style="fill:#158e30;stroke-width:0"
         d="m 636.97998,99.949997 a 4,4 0 0 1 -4,4.000003 4,4 0 0 1 -4,-4.000003 4,4 0 0 1 4,-4 4,4 0 0 1 4,4 z" />
    </g>
    <g
       id="_0109">
      <path
         id="rect175"
         style="fill:#bebeb4;stroke-width:0"
         d="m 596.54999,58.939999 h 36.43 v 4 h -36.43 z" />
      <path
         id="circle175"
         style="fill:#158e30;stroke-width:0"
         d="m 636.97998,60.939999 a 4,4 0 0 1 -4,4 4,4 0 0 1 -4,-4 4,4 0 0 1 4,-4 4,4 0 0 1 4,4 z" />
    </g>
    <g
       id="_0108">
      <path
         id="rect176"
         style="fill:#bebeb4;stroke-width:0"
         d="m 596.54999,19.9 h 36.43 v 4 h -36.43 z" />
      <path
         id="circle176"
         style="fill:#158e30;stroke-width:0"
         d="m 636.97998,21.9 a 4,4 0 0 1 -4,4 4,4 0 0 1 -4,-4 4,4 0 0 1 4,-4 4,4 0 0 1 4,4 z" />
    </g>
    <g
       id="_0107">
      <path
         id="rect177"
         style="fill:#bebeb4;stroke-width:0"
         d="m 590.22998,19.9 h 10.28 v 4 h -10.28 z" />
      <path
         id="circle177"
         style="fill:#158e30;stroke-width:0"
         d="m 594.22998,21.9 a 4,4 0 0 1 -4,4 4,4 0 0 1 -4,-4 4,4 0 0 1 4,-4 4,4 0 0 1 4,4 z" />
    </g>
    <g
       id="_0106">
      <path
         id="rect178"
         style="fill:#bebeb4;stroke-width:0"
         d="m 590.22998,47.169998 h 10.28 v 4 h -10.28 z" />
      <path
         id="circle178"
         style="fill:#158e30;stroke-width:0"
         d="m 594.22998,49.169998 a 4,4 0 0 1 -4,4 4,4 0 0 1 -4,-4 4,4 0 0 1 4,-4 4,4 0 0 1 4,4 z" />
    </g>
    <g
       id="_0105">
      <path
         id="rect179"
         style="fill:#bebeb4;stroke-width:0"
         d="m 590.22998,73.459999 h 10.28 v 4 h -10.28 z" />
      <path
         id="circle179"
         style="fill:#158e30;stroke-width:0"
         d="m 594.22998,75.459999 a 4,4 0 0 1 -4,4 4,4 0 0 1 -4,-4 4,4 0 0 1 4,-4 4,4 0 0 1 4,4 z" />
    </g>
    <g
       id="_0104">
      <path
         id="rect180"
         style="fill:#bebeb4;stroke-width:0"
         d="m 590.22998,110.66 h 10.28 v 4 h -10.28 z" />
      <path
         id="circle180"
         style="fill:#158e30;stroke-width:0"
         d="m 594.22998,112.66 a 4,4 0 0 1 -4,4 4,4 0 0 1 -4,-4 4,4 0 0 1 4,-4 4,4 0 0 1 4,4 z" />
    </g>
    <g
       id="_0103">
      <path
         id="rect181"
         style="fill:#bebeb4;stroke-width:0"
         d="m 590.22998,149.8 h 10.28 v 4 h -10.28 z" />
      <path
         id="circle181"
         style="fill:#158e30;stroke-width:0"
         d="m 594.22998,151.8 a 4,4 0 0 1 -4,4 4,4 0 0 1 -4,-4 4,4 0 0 1 4,-4 4,4 0 0 1 4,4 z" />
    </g>
    <g
       id="_0102">
      <path
         id="rect182"
         style="fill:#bebeb4;stroke-width:0"
         d="m 590.22998,189.28999 h 10.28 v 4 h -10.28 z" />
      <path
         id="circle182"
         style="fill:#158e30;stroke-width:0"
         d="m 594.22998,191.28999 a 4,4 0 0 1 -4,4 4,4 0 0 1 -4,-4 4,4 0 0 1 4,-4 4,4 0 0 1 4,4 z" />
    </g>
    <g
       id="_0101">
      <path
         id="rect183"
         style="fill:#bebeb4;stroke-width:0"
         d="m 590.22998,214.50999 h 10.28 v 4 h -10.28 z" />
      <path
         id="circle183"
         style="fill:#158e30;stroke-width:0"
         d="m 594.22998,216.50999 a 4,4 0 0 1 -4,4 4,4 0 0 1 -4,-4 4,4 0 0 1 4,-4 4,4 0 0 1 4,4 z" />
    </g>
    <g
       id="_0100">
      <path
         id="rect184"
         style="fill:#bebeb4;stroke-width:0"
         d="m 590.22998,242.97 h 10.28 v 4 h -10.28 z" />
      <path
         id="circle184"
         style="fill:#158e30;stroke-width:0"
         d="m 594.22998,244.97 a 4,4 0 0 1 -4,4 4,4 0 0 1 -4,-4 4,4 0 0 1 4,-4 4,4 0 0 1 4,4 z" />
    </g>
    <g
       id="_1180-2">
      <path
         id="rect185"
         style="fill:#bebeb4;stroke-width:0"
         d="m 877.04999,321.60001 h 2 v 16.74 h -2 z" />
      <path
         id="circle185"
         style="fill:#158e30;stroke-width:0"
         d="m 880.04999,338.35001 a 2,2 0 0 1 -2,2 2,2 0 0 1 -2,-2 2,2 0 0 1 2,-2 2,2 0 0 1 2,2 z" />
    </g>
    <g
       id="_1182-2">
      <path
         id="rect186"
         style="fill:#bebeb4;stroke-width:0"
         d="m 864.14001,321.60001 h 2 v 16.74 h -2 z" />
      <path
         id="circle186"
         style="fill:#158e30;stroke-width:0"
         d="m 867.14001,338.35001 a 2,2 0 0 1 -2,2 2,2 0 0 1 -2,-2 2,2 0 0 1 2,-2 2,2 0 0 1 2,2 z" />
    </g>
    <g
       id="_1173">
      <path
         id="rect187"
         style="fill:#bebeb4;stroke-width:0"
         d="m 858.60999,321.60999 h 6.65 v 2 h -6.65 z" />
      <path
         id="circle187"
         style="fill:#158e30;stroke-width:0"
         d="m 860.67999,322.60999 a 2,2 0 0 1 -2,2 2,2 0 0 1 -2,-2 2,2 0 0 1 2,-2 2,2 0 0 1 2,2 z" />
    </g>
    <g
       id="_1172">
      <path
         id="rect188"
         style="fill:#bebeb4;stroke-width:0"
         d="m 878.04999,321.60999 h 6.65 v 2 h -6.65 z" />
      <path
         id="circle188"
         style="fill:#158e30;stroke-width:0"
         d="m 886.70001,322.60999 a 2,2 0 0 1 -2,2 2,2 0 0 1 -2,-2 2,2 0 0 1 2,-2 2,2 0 0 1 2,2 z" />
    </g>
  </g>
</svg>
